<?xml version="1.0" encoding="UTF-8" standalone="no"?>
<!-- Created with Inkscape (http://www.inkscape.org/) -->

<svg
   xmlns:dc="http://purl.org/dc/elements/1.1/"
   xmlns:cc="http://creativecommons.org/ns#"
   xmlns:rdf="http://www.w3.org/1999/02/22-rdf-syntax-ns#"
   xmlns:svg="http://www.w3.org/2000/svg"
   xmlns="http://www.w3.org/2000/svg"
   xmlns:sodipodi="http://sodipodi.sourceforge.net/DTD/sodipodi-0.dtd"
   xmlns:inkscape="http://www.inkscape.org/namespaces/inkscape"
   width="700"
   height="200"
   viewBox="0 0 185.20832 52.916665"
   version="1.1"
   id="svg8"
   inkscape:version="0.92.2 5c3e80d, 2017-08-06"
   sodipodi:docname="mutinylogo.svg">
  <defs
     id="defs2" />
  <sodipodi:namedview
     id="base"
     pagecolor="#2f343f"
     bordercolor="#666666"
     borderopacity="1.0"
     inkscape:pageopacity="1"
     inkscape:pageshadow="2"
     inkscape:zoom="1.3241597"
     inkscape:cx="174.1841"
     inkscape:cy="-12.363015"
     inkscape:document-units="mm"
     inkscape:current-layer="layer1"
     showgrid="false"
     inkscape:snap-bbox="true"
     inkscape:bbox-paths="true"
     inkscape:bbox-nodes="true"
     inkscape:snap-bbox-edge-midpoints="true"
     inkscape:snap-bbox-midpoints="true"
     inkscape:snap-page="true"
     fit-margin-top="3.448275"
     fit-margin-left="1.93084"
     fit-margin-right="1.93084"
     fit-margin-bottom="3.448275"
     units="px"
     inkscape:pagecheckerboard="true"
     inkscape:window-width="1920"
     inkscape:window-height="1021"
     inkscape:window-x="0"
     inkscape:window-y="32"
     inkscape:window-maximized="1" />
  <metadata
     id="metadata5">
    <rdf:RDF>
      <cc:Work
         rdf:about="">
        <dc:format>image/svg+xml</dc:format>
        <dc:type
           rdf:resource="http://purl.org/dc/dcmitype/StillImage" />
        <dc:title></dc:title>
      </cc:Work>
    </rdf:RDF>
  </metadata>
  <g
     inkscape:label="Layer 1"
     inkscape:groupmode="layer"
     id="layer1"
     transform="translate(-12.86501,-8.9204532)">
    <flowRoot
       xml:space="preserve"
       id="flowRoot10-8"
       style="font-style:normal;font-weight:normal;font-size:40px;line-height:1.25;font-family:sans-serif;letter-spacing:0px;word-spacing:0px;fill:#4f010a;fill-opacity:0.96078431;stroke:#4f010a;stroke-width:0.95531303;stroke-miterlimit:4;stroke-dasharray:none;stroke-opacity:0.7254902"
       transform="matrix(1.0467773,0,0,1.0467773,-227.39536,-507.23788)"><flowRegion
         id="flowRegion12-6"
         style="fill:#4f010a;fill-opacity:0.96078431;stroke:#4f010a;stroke-width:0.95531303;stroke-miterlimit:4;stroke-dasharray:none;stroke-opacity:0.7254902"><rect
           id="rect14-3"
           width="200.61575"
           height="59.160801"
           x="212.3591"
           y="490.65256"
           style="fill:#4f010a;fill-opacity:0.96078431;stroke:#4f010a;stroke-width:0.95531303;stroke-miterlimit:4;stroke-dasharray:none;stroke-opacity:0.7254902" /></flowRegion><flowPara
         id="flowPara16-8"
         style="font-style:italic;font-variant:normal;font-weight:normal;font-stretch:normal;font-size:48.52990341px;font-family:'Righteous Kill Outline Italic';-inkscape-font-specification:'Righteous Kill Outline Italic, Italic';font-variant-ligatures:normal;font-variant-caps:normal;font-variant-numeric:normal;font-feature-settings:normal;text-align:center;writing-mode:lr-tb;text-anchor:middle;fill:#4f010a;fill-opacity:0.96078431;stroke:#4f010a;stroke-width:0.95531303;stroke-miterlimit:4;stroke-dasharray:none;stroke-opacity:0.7254902">Mutiny</flowPara></flowRoot>    <g
       aria-label="Mutiny"
       transform="matrix(1.0467773,0,0,1.0467773,-227.89539,-507.73798)"
       style="font-style:normal;font-weight:normal;font-size:40px;line-height:1.25;font-family:sans-serif;letter-spacing:0px;word-spacing:0px;fill:#ff336d;fill-opacity:1;stroke:#ff336d;stroke-width:0.95531303;stroke-miterlimit:4;stroke-dasharray:none;stroke-opacity:1"
       id="flowRoot10">
      <path
         d="m 235.56738,522.59557 0.43677,-0.29118 0.0485,-0.24265 h -0.38824 z m 3.93093,-8.4442 q 0.53382,-0.92207 1.01912,-1.89267 0.4853,-0.9706 0.82501,-1.84414 z m -2.47503,3.59121 h 0.63089 q 0.0485,-0.0971 0,-0.14559 0,-0.0485 0.0485,-0.0971 0.0971,0.19412 0.14559,0.33971 l 0.0485,-0.0485 q 0.24265,-0.63089 0.4853,-1.21325 0.24265,-0.63089 0.38824,-0.9706 -0.0971,0.24265 -0.33971,0.67942 -0.24265,0.38824 -0.33971,0.58236 l -0.92207,-0.0971 q 0.0971,0.24265 -0.0485,0.72795 z m -1.26178,-0.9706 h 1.26178 q 0.0485,-0.0971 0,-0.14559 0,-0.0485 0,-0.0971 0,0.0485 0,0.0485 0.0485,0 0.0485,0.0485 0.0485,-0.19412 0.0971,-0.33971 0.0485,-0.19412 0.0485,-0.38824 l -0.82501,-0.14559 q 0.0971,-0.38824 0.19412,-0.825 0.0971,-0.43677 0.19412,-0.72795 0.24265,-0.87354 0.38824,-1.60149 0.14559,-0.72795 0.53383,-1.79561 l 0.43677,-1.40736 q 0.24265,-0.72795 0.58236,-1.55296 0.33971,-0.82501 0.72795,-1.50443 0.38823,-0.72795 0.825,-1.16472 0.4853,-0.48529 1.01913,-0.48529 0.87354,0 1.40737,0.43676 0.58236,0.43677 1.11619,0.9706 v -0.0485 q 0.38824,0.4853 0.825,0.82501 0.38824,-0.24265 0.77648,-0.43677 0.43677,-0.24265 0.63089,-0.33971 h 0.19412 q 0.24265,0 0.38824,0.29118 0.14559,0.29118 0.33971,0.72795 0.38824,0.14559 0.67942,1.01913 0.29118,0.87354 0.4853,1.98972 0.24265,1.06766 0.33971,2.13532 0.14559,1.06766 0.14559,1.50443 v -0.0485 q 0.0485,0.38824 0.0485,0.72795 0.0485,0.29118 0.0971,0.67942 0.14559,1.7956 0.33971,3.63974 0.24265,1.84413 0.4853,3.63974 0.3397,-0.33971 0.72794,-0.87354 0.38824,-0.58236 0.77648,-1.06766 0.19412,-0.24265 0.33971,-0.43676 0.14559,-0.24265 0.24265,-0.38824 v 0.0485 l 8.97803,-12.56925 q 0.58236,-0.67942 1.69855,-1.98973 1.16472,-1.3103 2.47502,-2.57208 1.35884,-1.31031 2.66915,-2.28091 1.35884,-0.97059 2.23237,-0.97059 0.4853,0 0.77648,0.33971 0.29118,0.33971 0.4853,0.87353 0.67942,0.53383 0.87354,1.60149 0.19412,1.01913 -0.0485,1.69855 -0.0485,0.14559 -0.0971,0.24265 -0.0485,0.0971 -0.33971,0.53383 -0.0971,0.19412 -0.24265,0.33971 -0.29118,0.38823 -0.24265,0.3397 l -1.26177,3.78534 q 0,0.43677 0,0.58236 0.0485,0.14559 0.14558,0.38824 0.14559,1.7956 -0.19411,3.59121 -0.33971,1.7956 -0.87354,3.63974 -0.0971,0.24265 -0.14559,0.43677 0,0.19412 -0.0485,0.43677 -0.82501,3.15444 -1.31031,5.92065 -0.43677,2.71767 0.24265,5.53241 l -0.24265,0.72794 q -0.14559,0.43677 -0.72795,1.4559 -0.58236,1.01913 -1.35884,2.18385 -0.77647,1.11619 -1.69854,2.18384 -0.87354,1.01913 -1.60149,1.50443 -0.24265,0.33971 -0.77648,0.33971 h -0.82501 l 0.29118,-0.9706 h -0.14559 -0.825 l 0.67941,-2.13531 -0.38824,-0.58236 h -1.45589 q -0.38824,-0.29118 -0.29118,-0.9706 h -0.33971 q -0.38824,-0.24265 -0.33971,-0.82501 0.0971,-0.63089 0.33971,-1.4559 0.19412,-0.58236 0.33971,-1.16471 0.19412,-0.58236 0.14559,-0.9706 l 2.03825,-6.1633 q 0.19412,-0.58236 0.33971,-1.31031 0.14559,-0.77648 0.14559,-1.01913 0.0971,-0.24264 0.29118,-1.06765 0.19412,-0.82501 0.29118,-1.65002 l -9.17215,11.11335 q -0.33971,0.38824 -0.58236,0.92207 -0.19412,0.53382 -0.33971,0.92206 l -0.33971,0.9706 h -1.3103 q -0.14559,0 -0.24265,0 -0.0971,-0.0485 -0.43677,-0.19412 -0.43677,0 -0.82501,0.29118 -0.33971,0.24265 -0.67942,0.63089 -0.29118,0.38824 -0.58236,0.82501 -0.29118,0.43677 -0.4853,0.77648 -0.43677,0.63089 -0.72795,1.06766 -0.24265,0.38823 -0.82501,0.38823 -0.58235,0 -0.87353,-0.97059 -0.63089,-0.19412 -0.72795,-1.65002 -0.0971,-1.4559 -0.0971,-3.44562 0,-1.35884 -0.0485,-2.81474 0,-1.45589 -0.14559,-2.57208 -0.38824,0.82501 -1.01913,2.03825 -0.58236,1.16472 -1.21325,2.37797 -0.58236,1.21325 -1.11618,2.23237 -0.4853,0.9706 -0.67942,1.40737 l -0.53383,0.92207 q -0.0971,0.24265 -0.24265,0.58236 -0.0971,0.33971 -0.19412,0.58236 -0.29118,0.4853 -0.53383,1.3103 h -1.31031 q -0.0485,0 -0.14559,0.0485 -0.0971,0 -0.19412,0 -0.29118,0 -0.58236,-0.14559 -0.24265,-0.14558 -0.19412,-0.58235 0,-0.14559 0.0485,-0.24265 -0.29118,0 -0.53382,-0.14559 -0.19412,-0.14559 -0.14559,-0.58236 0.14559,-0.9706 0.14559,-1.69855 0.0485,-0.72795 -0.0971,-1.40737 l -0.24265,0.92207 q -0.0485,0.9706 -0.38824,2.23238 -0.29118,1.21325 -0.53383,1.94119 l -0.53383,1.65002 -1.65002,-2.37796 q 0.0485,-0.19412 0.0485,-0.29118 0,-0.0971 0.0485,-0.58236 0.0971,-0.38824 0.14559,-0.92207 0.0971,-0.53383 0.19412,-0.92207 0.33971,-1.9412 0.72795,-3.88239 0.43677,-1.9412 1.11619,-4.07651 l 0.67942,-2.03826 1.21324,-0.87354 0.14559,-0.33971 h -0.97059 l 0.63088,-2.03825 q 0.72795,0.53383 0.87354,0.67942 0.14559,0.14559 0.33971,0.38824 l -0.0485,0.24264 q 0.14559,0.0971 0.19412,0.19412 0.0971,0.0971 0.19412,0.14559 0.0485,-0.0485 0.0485,-0.0971 0.0485,-0.0485 0.14559,-0.0971 l -0.0485,0.0485 q 0.0971,-0.0971 0.14559,-0.19412 0.0971,-0.14559 0.0971,-0.19411 l 0.19412,-0.63089 h -1.31031 l 0.33971,-0.9706 h -0.9706 z m 28.24441,-7.86184 q 0,0.0971 -0.43677,0.63089 -0.38824,0.53383 -0.9706,1.26177 -0.53383,0.67942 -1.11619,1.4559 -0.58236,0.72795 -0.92207,1.16472 -0.0971,0.0971 -0.38824,0.43677 -0.24265,0.33971 -0.58235,0.77648 -0.33971,0.38824 -0.67942,0.77647 -0.33971,0.33971 -0.53383,0.4853 -0.0971,0.0485 -0.29118,0.24265 -0.14559,0.19412 -0.33971,0.43677 -0.14559,0.19412 -0.33971,0.38824 -0.19412,0.19412 -0.24265,0.24265 -0.24265,0.24265 -0.38824,0.24265 l 0.0971,-0.33971 q 0.0971,-0.33971 0.58236,-1.11619 0.53383,-0.77648 1.26178,-1.74707 0.72795,-0.9706 1.55295,-1.98973 0.82501,-1.06766 1.60149,-1.89267 0.77648,-0.87353 1.40737,-1.40736 0.63089,-0.53383 0.92207,-0.53383 z m -28.00176,9.02656 h 0.33971 l 0.14559,-0.43677 q 0.14559,-0.4853 -0.0485,-0.53383 -0.14559,-0.0485 -0.0485,-0.19412 z m -1.01913,3.15444 q 0.0485,-0.14559 0.19412,-0.24265 0.14559,-0.14559 0.24265,-0.24265 v -0.0485 l 0.0971,-0.19412 q -0.0485,-0.0485 -0.14559,-0.0971 -0.0971,-0.097 -0.0971,-0.097 z m -1.06765,3.25151 q -0.67942,2.03825 -1.06766,3.97945 -0.38824,1.94119 -0.77648,3.88239 -0.0971,0.29118 -0.14559,0.72795 -0.0485,0.38824 -0.0971,0.82501 -0.0485,0.38824 -0.0971,0.67942 -0.0485,0.29118 -0.0485,0.29118 l 0.14559,0.19412 0.0485,-0.14559 q 0.14559,-0.38824 0.29118,-0.92207 0.14559,-0.53383 0.29118,-1.11619 0.14559,-0.58236 0.24265,-1.11619 0.0971,-0.53383 0.0971,-0.9706 l 2.23237,-8.4442 -0.53382,0.38824 -0.43677,1.31031 z m 26.44879,12.03541 h 0.19412 q 0.19412,0 0.19412,-0.0971 0.63089,-0.33971 1.4559,-1.3103 0.87354,-0.9706 1.65002,-2.08679 0.77648,-1.11619 1.3103,-2.08679 0.58236,-1.01912 0.72795,-1.45589 l 0.24265,-0.63089 q -0.67942,-2.76621 -0.24265,-5.53241 0.43677,-2.81474 1.31031,-5.96918 0.53383,-2.08678 0.9706,-4.02798 0.4853,-1.98973 0.29118,-4.02798 -0.0971,-0.24265 -0.0971,-0.63089 0,-0.43677 0,-0.43677 l 1.21325,-3.83386 q 0.0971,-0.0971 0.38823,-0.53383 0.33971,-0.4853 0.43677,-0.58236 0,0 0.0485,-0.0971 0.0485,-0.0971 0.0971,-0.19412 0.0971,-0.33971 0.0971,-0.82501 0,-0.4853 -0.14559,-0.92207 -0.14559,-0.4853 -0.38824,-0.82501 -0.24265,-0.3397 -0.63088,-0.3397 -0.77648,0 -1.98973,0.92206 -1.16472,0.92207 -2.4265,2.13532 -1.21324,1.21325 -2.32943,2.47502 -1.06766,1.26178 -1.55296,1.89267 l -9.02656,12.56925 q -0.24265,0.29117 -0.63089,0.87353 -0.38824,0.53383 -0.82501,1.11619 -0.43677,0.53383 -0.92207,0.9706 -0.48529,0.43677 -0.825,0.43677 l -0.0971,-0.0485 q -0.0971,-0.14559 -0.33971,-0.33971 -0.19412,-0.19412 -0.0971,-0.33971 -0.38824,-2.32944 -0.63089,-4.80446 -0.24265,-2.47503 -0.4853,-4.80446 0,-0.43677 -0.0971,-1.4559 -0.0971,-1.06766 -0.24265,-2.08678 -0.14559,-1.06766 -0.38824,-1.89267 -0.24265,-0.82501 -0.53383,-0.82501 h -0.14559 q -0.0971,0.0485 -0.67942,0.38824 -0.53383,0.33971 -0.67941,0.4853 -0.43677,-0.19412 -0.82501,-0.58236 -0.38824,-0.38824 -0.77648,-0.72795 -0.38824,-0.38824 -0.82501,-0.67942 -0.43677,-0.29118 -1.06766,-0.29118 -0.43677,0 -0.92207,0.77648 -0.43677,0.72795 -0.825,1.69855 -0.38824,0.9706 -0.67942,1.84414 -0.24265,0.87353 -0.29118,1.16471 -0.43677,1.26178 -0.67942,2.28091 -0.19412,0.9706 -0.58236,2.37796 0.0971,-0.0971 0.24265,-0.43676 0.14559,-0.33971 0.24265,-0.53383 l 2.66914,-5.33829 0.82501,-1.06766 0.0971,-0.0485 q 0.67942,0 0.9706,0.58236 0.33971,0.58236 0.0971,1.16472 -0.43677,1.35883 -1.26178,2.91179 -0.82501,1.50443 -1.50442,2.7662 -0.0485,0.14559 -0.33971,0.87354 -0.29118,0.67942 -0.63089,1.50443 -0.29118,0.77648 -0.58236,1.50443 -0.29118,0.67942 -0.33971,0.82501 -0.0485,0.097 -0.24265,0.43676 -0.19412,0.33971 -0.29118,0.4853 l -2.52355,7.76479 q 0.29117,0.63089 0.43676,1.16472 0.14559,0.48529 0.19412,1.06765 0.0485,0.53383 0,1.16472 -0.0485,0.58236 -0.14559,1.35884 -0.0485,0.14559 0.0485,0.19412 0.0971,0.0485 0.24265,0.0485 0.14559,0 0.24265,0 0.14559,-0.0485 0.14559,-0.0485 h 0.63089 q 0,-0.0971 0.0971,-0.33971 0.14559,-0.29118 0.29118,-0.58236 0.14559,-0.33971 0.24265,-0.63089 0.14559,-0.29118 0.19412,-0.43677 l 0.4853,-0.92207 q 0.24265,-0.4853 0.87354,-1.69854 0.63089,-1.21325 1.3103,-2.57209 0.67942,-1.40737 1.31031,-2.66914 0.63089,-1.26178 0.92207,-1.79561 0.0971,-0.19412 0.29118,-0.4853 0.19412,-0.29118 0.38824,-0.38824 0.4853,0.4853 0.67942,1.60149 0.24265,1.11619 0.29118,2.52355 0.0971,1.35884 0.0971,2.86327 0,1.50443 0,2.71767 0.0485,1.21325 0.14559,2.03826 0.0971,0.77648 0.43677,0.77648 0.19412,0 0.53382,-0.63089 0.38824,-0.63089 0.87354,-1.35884 0.53383,-0.72795 1.21325,-1.35884 0.67942,-0.63088 1.55296,-0.63088 0,0 0.24265,0.0971 0.29118,0.0971 0.38824,0.0971 h 0.29118 0.38823 q 0.19412,-0.43677 0.4853,-1.16472 0.29118,-0.77648 0.67942,-1.31031 l 9.65745,-11.64718 q 0.0971,0 0.4853,-0.43677 0.43677,-0.48529 0.72795,-0.48529 0.24265,0.0971 0.24265,0.87353 0,0.72795 -0.14559,1.65002 -0.0971,0.92207 -0.29118,1.74708 -0.19412,0.82501 -0.24265,1.11618 0,0.24265 -0.19412,1.01913 -0.14559,0.77648 -0.33971,1.35884 l -0.19412,0.53383 -0.92207,2.81473 -0.87353,2.76621 q 0,0.38824 -0.19412,1.01913 -0.14559,0.58235 -0.33971,1.16471 -0.19412,0.63089 -0.29118,1.11619 -0.0971,0.43677 0.0485,0.53383 h 0.14559 0.19412 0.53383 q 0.14559,0 0.4853,0.0971 0.3397,0.0971 0.3397,0.19412 l 0.43677,0.63089 q 0.14559,0.0485 0.43677,0.33971 0.29118,0.24265 0.38824,0.29118 z"
         style="font-style:italic;font-variant:normal;font-weight:normal;font-stretch:normal;font-size:48.52990341px;font-family:'Righteous Kill Outline Italic';-inkscape-font-specification:'Righteous Kill Outline Italic, Italic';font-variant-ligatures:normal;font-variant-caps:normal;font-variant-numeric:normal;font-feature-settings:normal;text-align:center;writing-mode:lr-tb;text-anchor:middle;fill:#ff336d;fill-opacity:1;stroke:#ff336d;stroke-width:0.95531303;stroke-miterlimit:4;stroke-dasharray:none;stroke-opacity:1"
         id="path4579"
         inkscape:connector-curvature="0" />
      <path
         d="m 280.60541,530.84565 q -0.24265,0.77648 0.24265,1.01913 0.4853,0.24265 1.16472,0.24265 0.14559,0 0.43676,-0.0485 0.29118,-0.0485 0.38824,-0.38824 l 0.53383,-1.65001 q -0.77648,0 -1.35883,0.19412 -0.53383,0.19411 -1.35884,0.58235 z m -1.9412,-24.31348 q 0,0.0485 0.0485,0.58236 0.0485,0.4853 -0.0485,0.77648 0.14559,0.72795 -0.33971,2.03826 l -0.63089,2.03825 q -0.53382,1.60149 -1.3103,3.15445 -0.72795,1.55295 -1.26178,3.20297 -0.24265,0.72795 -0.58236,2.2809 -0.29118,1.50443 -0.33971,3.05739 0,1.50443 0.33971,2.66914 0.38824,1.11619 1.55296,1.11619 0.38824,0 1.01913,-0.53383 0.63088,-0.53383 1.3103,-1.21325 0.67942,-0.72794 1.26178,-1.45589 0.63089,-0.72795 1.01913,-1.11619 0.0971,-0.0971 0.33971,-0.38824 0.29118,-0.29118 0.63089,-0.58236 0.33971,-0.33971 0.63089,-0.58236 0.29117,-0.29118 0.43676,-0.38824 0.24265,-0.29118 0.4853,-0.33971 0.29118,-0.0971 0.53383,-0.0971 0.24265,-0.0485 0.4853,-0.0971 0.29118,-0.0971 0.53383,-0.38824 0.43677,-0.58235 0.87354,-1.40736 0.4853,-0.87354 0.87354,-1.79561 0.43677,-0.92207 0.77648,-1.79561 0.3397,-0.87353 0.53382,-1.50442 0.14559,-0.43677 0.33971,-1.01913 0.24265,-0.63089 0.0971,-1.06766 0.38824,-2.08678 0.77648,-3.68827 0.43677,-1.60149 1.01913,-3.44562 l 0.0971,-0.24265 0.19412,-0.63089 0.0971,-0.19412 q 0.58236,-0.63089 1.60149,-1.01913 1.06765,-0.38824 1.74707,-0.38824 0.24265,0 0.24265,0.33971 0,0.29118 -0.0971,0.72795 -0.0971,0.38824 -0.24265,0.77648 -0.14559,0.38824 -0.19412,0.4853 l -0.0971,0.33971 -0.29118,0.92206 -0.0971,0.24265 q -0.53383,0.24265 -0.67941,0.82501 -0.29118,0.82501 -0.0485,1.50443 0.29117,0.67942 0.14558,1.4559 -0.0485,0.0971 -0.14558,0.48529 -0.0971,0.38824 -0.19412,0.87354 -0.0971,0.4853 -0.24265,0.9706 -0.0971,0.43677 -0.14559,0.63089 -0.0971,0.29118 -0.33971,1.16472 -0.19412,0.87354 -0.58236,1.98972 -0.33971,0.9706 -0.67942,1.84414 -0.29118,0.82501 -0.38824,1.21325 0.0971,0.0485 0.0485,0.14559 0,0.0971 0.0485,0.0971 0,0 0.0485,0.0485 0.0971,0 0.14559,0 l 0.0485,-0.0485 q 0.0485,0 0.14559,-0.0971 0.0971,-0.0971 0.19412,-0.14559 1.01913,-3.68828 2.47502,-7.08537 1.4559,-3.39709 2.71768,-6.9883 h 0.24265 q -1.55296,5.72652 -3.20298,11.11334 -1.60148,5.38682 -3.44562,11.11335 h -0.58236 l -1.01913,-0.29118 h -0.0971 q -0.29117,0 -0.63088,0.33971 -0.29118,0.33971 -0.38824,0.58236 -0.0971,0.24265 -0.38824,0.87354 -0.29118,0.63089 -0.63089,1.31031 -0.33971,0.67941 -0.67942,1.3103 -0.29118,0.58236 -0.43677,0.77648 -0.4853,0.92207 -0.92207,1.26178 -0.43677,0.33971 -1.35883,0.33971 -0.67942,0 -1.26178,-0.19412 -0.53383,-0.19412 -1.06766,-0.43677 -0.4853,-0.24265 -1.01913,-0.43677 -0.53383,-0.24265 -1.11619,-0.33971 -0.0971,0 -0.43676,0 -0.33971,-0.0485 -0.72795,-0.0971 -0.33971,-0.0485 -0.63089,-0.0485 -0.29118,-0.0485 -0.33971,-0.0485 -0.38824,-0.0485 -0.67942,-0.38824 -0.24265,-0.38824 -0.4853,-0.82501 -0.19412,-0.43677 -0.38824,-0.825 -0.19412,-0.43677 -0.38824,-0.67942 -0.38824,-0.43677 -1.01913,-0.9706 -0.63088,-0.53383 -1.21324,-1.21325 -0.58236,-0.67942 -0.92207,-1.4559 -0.29118,-0.77647 0,-1.69854 l 5.62947,-17.32518 z m -3.10591,-0.63089 -5.82359,17.95607 q -0.33971,1.06766 -0.0485,1.94119 0.33971,0.87354 0.92207,1.60149 0.38824,0.72795 0.9706,1.35884 0.63089,0.58236 1.26177,1.11619 0.0971,0.0971 0.19412,0.19412 0.0971,0.0971 0.19412,0.19411 l 0.19412,0.29118 q 0.19412,0.43677 0.38824,0.87354 0.24265,0.38824 0.53383,0.67942 0.24265,0.53383 0.58236,0.92207 0.38824,0.38824 0.92207,0.4853 0.0485,0 0.24265,0 0.24265,0 0.4853,0.0485 0.38824,0.0485 0.97059,0.0971 0.58236,0.0485 0.4853,0.0485 h -0.0485 q 0.4853,0.0971 0.87354,0.29118 0.43677,0.14559 0.82501,0.33971 0.58236,0.29118 1.26178,0.53383 0.67942,0.24265 1.55295,0.24265 1.26178,0 1.84414,-0.43677 0.58236,-0.4853 1.26178,-1.65002 0.14559,-0.19412 0.43677,-0.82501 0.33971,-0.63089 0.67942,-1.31031 0.33971,-0.67941 0.63088,-1.3103 0.29118,-0.67942 0.38824,-0.9706 0.0485,-0.0485 0.0485,-0.14559 0.0485,-0.0971 0.0971,-0.14559 l 1.01913,0.29118 h 1.35884 q 1.84414,-5.72653 3.63974,-11.74424 1.84414,-6.01771 3.3971,-11.74424 h -0.92207 q 0.0971,-0.24264 0.0971,-0.48529 0.0485,-0.24265 0.14559,-0.4853 h -1.35884 q 0.19412,-0.63089 0.0971,-1.16472 -0.0971,-0.53383 -0.63089,-0.58236 0,-0.38824 -0.14559,-0.67942 -0.14559,-0.29118 -0.58236,-0.29118 -0.82501,0 -2.08678,0.53383 -1.21325,0.4853 -2.03826,1.31031 l -0.43677,1.26178 q -0.63089,1.94119 -1.06766,3.59121 -0.38824,1.60149 -0.77648,3.68827 0.0485,0.4853 -0.0971,1.06766 l -0.29117,0.87354 q -0.19412,0.58236 -0.53383,1.45589 -0.33971,0.82501 -0.72795,1.74708 -0.38824,0.87354 -0.82501,1.69855 -0.43677,0.82501 -0.82501,1.35884 v -0.0485 q -0.0971,0.14559 -0.43677,0.14559 -0.38824,0.0485 -0.77648,0.14558 -0.38824,0.0971 -0.825,0.63089 -0.19412,0.14559 -0.53383,0.43677 -0.29118,0.29118 -0.63089,0.63089 -0.29118,0.29118 -0.58236,0.53383 -0.24265,0.24265 -0.29118,0.33971 l 0.14559,-0.0971 q -0.58236,0.4853 -0.67942,0.63089 -0.0485,0.14559 -0.24265,0.38824 h 0.0485 q -0.38824,0.43677 -0.87354,0.9706 -0.4853,0.53382 -0.9706,1.01912 -0.43676,0.43677 -0.825,0.77648 -0.33971,0.29118 -0.53383,0.29118 -0.33971,0 -0.63089,-0.14559 -0.24265,-0.72795 -0.19412,-1.7956 0.0485,-1.06766 0.19412,-2.13532 0.14559,-1.06766 0.38824,-1.98973 0.24265,-0.92206 0.38824,-1.45589 0.24265,-0.77648 0.53383,-1.50443 0.3397,-0.77648 0.72794,-1.60149 0.33971,-0.82501 0.63089,-1.55295 0.33971,-0.72795 0.63089,-1.69855 l 0.67942,-2.03826 q 0.38824,-1.3103 0.38824,-2.18384 0,-0.14559 0,-0.53383 0,-0.38824 -0.0485,-0.63089 0,-0.24265 0,-0.29118 0,-0.0971 -0.0485,-0.38824 h -0.58236 q 0,-0.0971 -0.0485,-0.14559 0,-0.0485 0.0485,-0.14559 0,-0.24265 0,-0.29118 0,-0.0971 -0.0971,-0.38824 z m 17.95606,2.66915 q -0.0485,-0.33971 0.0971,-0.87354 0.0485,-0.0485 0.0971,-0.0971 0.0971,-0.0971 0.24265,-0.19412 z"
         style="font-style:italic;font-variant:normal;font-weight:normal;font-stretch:normal;font-size:48.52990341px;font-family:'Righteous Kill Outline Italic';-inkscape-font-specification:'Righteous Kill Outline Italic, Italic';font-variant-ligatures:normal;font-variant-caps:normal;font-variant-numeric:normal;font-feature-settings:normal;text-align:center;writing-mode:lr-tb;text-anchor:middle;fill:#ff336d;fill-opacity:1;stroke:#ff336d;stroke-width:0.95531303;stroke-miterlimit:4;stroke-dasharray:none;stroke-opacity:1"
         id="path4581"
         inkscape:connector-curvature="0" />
      <path
         d="m 316.7526,521.96468 q 0,0 -0.0485,0 0,0 0,-0.0485 l 0.0485,-0.0971 z m -0.67941,-0.9706 q 0,0 -0.0485,0 0,0 0.0485,-0.0485 v -0.0971 q 0.0485,0.0971 0,0.14559 0,0 0,0 z m -9.60893,-8.4442 q 0.24265,0 0.4853,-0.0485 0.24265,-0.0485 0.33971,-0.24265 -0.38824,0.0485 -0.72795,0.14559 -0.29118,0.0971 -0.63088,0.19412 z m 0.58236,10.43393 q 0.0971,-0.67942 0.19412,-1.55296 0.14559,-0.87354 0.19412,-1.74707 0.0971,-0.92207 0.14559,-1.74708 0.0485,-0.87354 0,-1.55296 h -0.43677 q -0.92207,0 -2.08678,0.14559 -1.16472,0.14559 -1.98973,0.24265 -0.0485,0 -0.19412,0.0485 -0.0971,0.0485 -0.19412,0.0971 -0.38824,0.14559 -0.77648,0.24265 -0.33971,0.0971 -0.43677,0.0971 h -0.24265 q -0.14558,0 -0.48529,-0.0485 -0.33971,-0.0971 -0.72795,-0.19412 -0.33971,-0.0971 -0.67942,-0.19412 -0.33971,-0.0971 -0.43677,-0.19412 0,-0.29118 -0.19412,-0.77648 -0.19412,-0.0485 -0.29118,-0.0971 -0.0971,-0.0485 -0.19412,-0.0971 0,-0.14559 -0.0971,-0.43677 -0.0971,-0.3397 -0.19412,-0.48529 l 0.0971,-0.29118 q 0.0971,-0.38824 0.4853,-0.67942 0.43677,-0.29118 0.92207,-0.4853 -0.43677,-0.33971 -0.72795,-0.72795 -0.24265,-0.24265 -0.53383,-0.4853 -0.29118,-0.29118 -0.87354,-0.58236 l 0.14559,-0.4853 q -0.24265,-0.19412 -0.77648,-0.4853 l 0.24265,-0.825 q 0.14559,-0.4853 0.72795,-0.77648 0.58236,-0.33971 1.4559,-0.53383 0.87354,-0.19412 1.98973,-0.33971 1.11618,-0.14559 2.2809,-0.29118 1.01913,-0.0971 2.03826,-0.19412 1.01912,-0.14559 1.7956,-0.24265 0.82501,-0.14559 1.31031,-0.24265 0.4853,-0.14559 0.53383,-0.24265 l 1.31031,-3.97945 q 0.0485,-0.0971 0.19412,-0.4853 0.14559,-0.38824 0.33971,-0.87354 0.24265,-0.53383 0.43676,-1.06766 0.24265,-0.58235 0.4853,-1.06765 0.14559,-0.33971 0.24265,-0.58236 0.0971,-0.24265 0.19412,-0.4853 0.14559,-0.24265 0.24265,-0.4853 0.14559,-0.29118 0.24265,-0.4853 v 0.0485 q 0.29118,-0.58236 0.4853,-0.9706 0.24265,-0.43677 0.63089,-0.67942 0.43677,-0.29118 1.06766,-0.38824 0.67942,-0.0971 1.7956,-0.0971 -0.24265,0.67942 -0.43677,1.01913 0.24265,-0.0485 0.4853,-0.0485 0.24265,0 0.58236,0 -0.38824,1.11619 -0.72795,1.4559 -0.29118,0.33971 -0.67941,0.58236 -0.38824,0.19412 -0.53383,0.33971 -0.29118,0.24265 -0.58236,0.72795 -0.29118,0.43677 -0.58236,0.97059 -0.24265,0.53383 -0.43677,1.06766 -0.19412,0.53383 -0.33971,0.87354 l -0.24265,0.72795 q -0.19412,0.63089 -0.53383,1.69855 -0.29118,1.01912 -0.38824,1.84413 1.74708,-1.40736 2.71768,-3.2515 0.9706,-1.89267 1.60148,-3.88239 l 0.72795,-2.23238 q 0.0971,-0.24265 0.19412,-0.58236 0.14559,-0.33971 0.67942,-1.26178 0.24265,0.29118 0.38824,0.58236 0.19412,0.29118 0.33971,0.53383 0.77648,0.82501 0.87354,1.60149 0.14559,0.72795 0.0485,1.35884 v 0.29118 q -0.0971,0.38824 -0.38824,1.40736 -0.29118,0.9706 -0.53383,1.9412 -0.29118,1.01913 -0.53383,1.89267 -0.24265,0.87353 -0.33971,1.21324 -0.14559,0.38824 -0.14559,0.67942 h 0.0485 q 0.0971,0 0.58236,-0.19412 0.24265,-0.0971 0.43677,-0.19412 0.24265,-0.0971 0.77648,-0.0971 h 5.678 q 0.14559,0.0971 0.87353,0.24265 0.77648,0.14559 1.60149,0.33971 0.67942,0.14559 1.31031,0.33971 0.67942,0.14559 1.16472,0.33971 0.53383,0.19412 0.77648,0.43677 0.29117,0.24265 0.19411,0.4853 0,0.0485 -0.097,0.14559 0.38823,0.19412 0.63088,0.38824 0.24265,0.19412 0.14559,0.43677 -0.0971,0.0971 -0.0971,0.14559 l -0.19412,0.53382 q -0.0971,0.0485 -0.29118,0.0971 -0.14558,0 -0.24264,0.0485 -0.29118,0.0971 -0.63089,0.24265 -0.33971,0.0971 -0.58236,0.24265 l 1.65001,0.92207 -0.19412,0.4853 v 0.0485 l 0.82501,0.43677 -0.14559,0.4853 q -0.0971,0.33971 -0.4853,0.67942 -0.3397,0.29118 -0.72794,0.53383 -0.38824,0.19412 -0.77648,0.33971 -0.38824,0.14559 -0.58236,0.14559 -0.53383,0 -0.77648,-0.0485 -0.24265,-0.0971 -0.43677,-0.43677 h -1.98973 q -1.21324,0 -2.52355,0.0971 -1.26178,0.0485 -2.52356,0.33971 -1.21324,0.29118 -2.42649,0.92206 -1.16472,0.63089 -2.18385,1.74708 l 0.0485,-0.0971 q -0.19412,0.19412 -0.19412,0.29118 l -0.0971,0.0971 -0.77647,2.47502 q 0.33971,0.24265 0.38824,0.72795 l -0.0485,0.0485 q 0.24264,0.14559 0.43676,0.33971 0.19412,0.19412 0.24265,0.58236 -0.0485,0.33971 -0.0485,0.77648 0,0.43677 0.0971,0.63089 -0.14559,0.9706 -0.0971,2.08678 0.0971,1.11619 0.19412,2.23238 0.0971,1.55296 0.14559,2.96032 0.0485,1.40737 -0.33971,2.57209 l -0.24265,0.67942 q -0.38823,1.16472 -1.3103,1.16472 -0.4853,0 -0.58236,-0.24265 -0.0971,-0.29118 -0.0485,-0.72795 -0.67942,0 -0.67942,-0.53383 0.0485,-0.58236 0.14559,-1.40737 0,-0.29118 0.0485,-0.43677 l -2.66915,6.01771 -0.77647,0.24265 q -0.53383,0 -0.87354,-0.19412 -0.29118,-0.14559 -0.53383,-0.38824 h 0.0485 q -0.0971,-0.0485 -0.24265,-0.19412 l -0.63089,-0.9706 q -1.26178,-1.69854 -1.69855,-3.49415 -0.43676,-1.84414 -0.29118,-4.27063 0,-0.19412 0.0485,-0.77648 0.0971,-0.58236 0.19412,-1.26178 0.0971,-0.77648 0.19412,-1.45589 0.14559,-0.67942 0.0971,-0.92207 0.0485,-0.19412 0.0971,-0.4853 0.0485,-0.29118 0.0971,-0.53383 z m 2.37797,-2.86326 q 0.43677,0 0.4853,0.92206 0.0971,0.87354 0,2.03826 -0.0971,1.16472 -0.29118,2.2809 -0.19412,1.11619 -0.33971,1.55296 -0.0485,0.0971 -0.14559,0.4853 -0.0971,0.33971 -0.38824,0.38824 -0.33971,-0.29118 -0.33971,-1.35884 0,-1.06766 0.19412,-2.2809 0.19412,-1.26178 0.43677,-2.37797 0.24265,-1.16472 0.38824,-1.65001 z m -1.60149,-5.33829 q 0.33971,0.43676 0.38824,1.60148 0.0485,1.16472 -0.0485,2.57209 -0.0971,1.35883 -0.29118,2.71767 -0.19412,1.35884 -0.29118,2.08679 0,0.14559 -0.0971,0.82501 -0.0971,0.63088 -0.19412,1.40736 -0.0971,0.72795 -0.19412,1.40737 -0.0971,0.67942 -0.0971,0.87354 -0.14559,2.32943 0.24265,4.07651 0.38824,1.74708 1.60149,3.30003 0.24265,0.19412 0.53383,0.43677 0.29118,0.24265 0.67942,0.24265 l 0.14559,-0.0485 2.86326,-6.45447 q 0.14559,-0.38824 0.29118,-0.67942 0.19412,-0.29118 0.63089,-0.29118 0.58236,0 0.67942,0.72795 0.0971,0.67941 0,1.55295 -0.0485,0.87354 -0.14559,1.60149 -0.0971,0.67942 0.14559,0.67942 0.24265,0 0.4853,-0.53383 l 0.19412,-0.67942 q 0.33971,-0.9706 0.33971,-2.18384 0,-1.21325 -0.14559,-2.47503 -0.0971,-1.31031 -0.19412,-2.57208 -0.0485,-1.26178 0.0971,-2.37797 -0.0971,-0.29118 -0.0485,-0.82501 0.0485,-0.58236 0.0485,-0.67942 -0.0485,-0.19412 -0.29118,-0.33971 -0.19412,-0.19412 -0.43677,-0.33971 -0.19412,-0.19412 -0.38824,-0.3397 -0.14559,-0.19412 -0.0971,-0.38824 l 1.01913,-3.10592 q 0,-0.0485 0.19412,-0.19412 0.19412,-0.19412 0.19412,-0.24265 1.11618,-1.21324 2.37796,-1.89266 1.31031,-0.67942 2.62062,-1.01913 1.3103,-0.33971 2.66914,-0.38824 1.35884,-0.0971 2.62062,-0.0971 h 0.43676 1.35884 0.4853 q 0.14559,0.33971 0.29118,0.43677 0.19412,0.0485 0.58236,0.0485 0.14559,0 0.38824,-0.0485 0.29118,-0.0971 0.53383,-0.24265 0.29118,-0.14559 0.53383,-0.33971 0.24265,-0.19412 0.29118,-0.43677 l 0.0485,-0.0971 -2.52356,-1.35884 q -0.19412,-0.0971 -0.14559,-0.19412 l 0.0971,-0.38824 q 0.24265,-0.67941 1.01913,-0.92206 0.77648,-0.29118 1.31031,-0.4853 0,-0.0485 0.0485,-0.0971 0.0485,-0.0971 0.0485,-0.14559 0.0485,-0.14559 -0.72795,-0.33971 -0.72795,-0.24265 -1.74708,-0.43677 -0.9706,-0.24265 -1.89267,-0.43677 -0.92206,-0.19412 -1.21324,-0.33971 h -5.58094 q -0.4853,0 -0.92207,0.24265 -0.43677,0.24265 -0.92207,0.24265 -0.92207,0 -1.06766,-0.72795 -0.0971,-0.77648 0.14559,-1.55296 0.0971,-0.3397 0.33971,-1.21324 0.24265,-0.92207 0.4853,-1.89267 0.29118,-1.01913 0.53383,-1.89267 0.24265,-0.92206 0.38824,-1.26177 0.0485,-0.63089 0.0971,-1.35884 0.0485,-0.72795 -0.38824,-1.11619 -0.0971,0.19412 -0.14559,0.38824 -0.0485,0.14559 -0.14559,0.33971 l -0.24265,0.72795 -0.4853,1.50443 q -0.72795,2.23237 -1.89266,4.36769 -1.16472,2.13531 -3.34857,3.63974 -0.0971,0.0485 -0.38824,0.0485 -0.48529,0 -0.58235,-0.63089 -0.0971,-0.63089 0.0485,-1.50443 0.14559,-0.87353 0.38823,-1.7956 0.29118,-0.92207 0.4853,-1.50443 l 0.24265,-0.72795 q 0.0971,-0.38824 0.33971,-0.92207 0.24265,-0.58235 0.53383,-1.16471 0.29118,-0.58236 0.63089,-1.11619 0.33971,-0.53383 0.72795,-0.82501 0.53383,-0.4853 0.87354,-0.58236 0.33971,-0.14559 0.58236,-0.77648 -0.82501,0 -1.26178,0.14559 -0.43677,0.0971 -0.67942,0.38824 -0.24265,0.29118 -0.4853,0.77648 -0.19412,0.4853 -0.58236,1.21325 -0.14559,0.38824 -0.4853,1.06766 -0.29118,0.67941 -0.58236,1.40736 -0.29118,0.72795 -0.53383,1.31031 -0.24264,0.58236 -0.29117,0.67942 l -0.63089,1.98973 -0.63089,1.89266 q -0.0485,0.43677 -0.9706,0.72795 -0.87354,0.29118 -2.18385,0.4853 -1.3103,0.19412 -2.86326,0.38824 -1.50443,0.14559 -2.86326,0.33971 -1.31031,0.19412 -2.23238,0.43677 -0.92207,0.19412 -1.06766,0.58236 l -0.14559,0.38824 q 0.43677,0.24264 0.72795,0.53382 0.29118,0.24265 0.53383,0.53383 0.29118,0.29118 0.53383,0.53383 0.29118,0.24265 0.67942,0.38824 h 0.33971 q 0.14559,0 0.33971,0.0485 0.24265,0 0.43677,0 h 0.29117 q 0.92207,0 1.65002,-0.19412 0.72795,-0.24265 1.35884,-0.53383 0.67942,-0.29118 1.31031,-0.4853 0.63088,-0.24265 1.35883,-0.24265 0.63089,0 0.92207,0.43677 0.29118,0.38824 0.0485,1.16472 -0.19412,0.53383 -0.67942,0.72795 -0.4853,0.19412 -0.92207,0.19412 l -6.21182,0.4853 q -0.33971,0 -0.87354,0.24265 -0.4853,0.19412 -0.58236,0.53383 v 0.0485 q 0.0971,0.0971 0.14559,0.33971 0.0485,0.24265 0.0485,0.3397 0.0971,0.0485 0.33971,0.14559 0.29118,0.0971 0.58236,0.19412 0.33971,0.0485 0.58236,0.0971 0.29118,0.0485 0.43677,0.0485 h 0.0971 0.14559 q 0.0485,0 0.24264,-0.0485 0.24265,-0.0971 0.4853,-0.19412 0.24265,-0.0971 0.43677,-0.14559 0.19412,-0.0971 0.29118,-0.0971 0.82501,-0.097 2.03826,-0.24264 1.21325,-0.14559 2.18384,-0.14559 h 0.19412 0.63089 z"
         style="font-style:italic;font-variant:normal;font-weight:normal;font-stretch:normal;font-size:48.52990341px;font-family:'Righteous Kill Outline Italic';-inkscape-font-specification:'Righteous Kill Outline Italic, Italic';font-variant-ligatures:normal;font-variant-caps:normal;font-variant-numeric:normal;font-feature-settings:normal;text-align:center;writing-mode:lr-tb;text-anchor:middle;fill:#ff336d;fill-opacity:1;stroke:#ff336d;stroke-width:0.95531303;stroke-miterlimit:4;stroke-dasharray:none;stroke-opacity:1"
         id="path4583"
         inkscape:connector-curvature="0" />
      <path
         d="m 328.534,533.75745 q -0.38824,0 -0.63089,0.29118 -0.19412,0.24265 -0.53383,0.24265 h -0.0485 q -0.14559,-0.33971 -0.0485,-1.11619 0.0971,-0.82501 0.24265,-1.69855 0.19412,-0.87354 0.38824,-1.69854 0.24265,-0.82501 0.38824,-1.31031 l 0.19412,-0.58236 0.77648,-2.32944 0.29118,-0.92206 0.24264,-0.77648 0.58236,-1.79561 0.0971,-0.33971 6.06624,-14.36485 q 0.24265,-0.43677 0.63089,-1.31031 0.38824,-0.92207 0.87354,-1.7956 0.53383,-0.92207 1.11619,-1.55296 0.63088,-0.67942 1.35883,-0.67942 0.19412,0 0.63089,0.0485 0.43677,0 0.82501,0.0971 0.43677,0.0971 0.72795,0.24265 0.29118,0.14559 0.19412,0.43677 l -2.37797,7.23096 q -0.4853,0.72794 -0.77648,1.55295 -0.29117,0.77648 -0.58235,1.60149 l -0.53383,1.65002 q -0.0971,0.38823 -0.29118,0.77647 -0.14559,0.33971 -0.29118,0.72795 -0.0485,0.14559 -0.29118,0.67942 -0.24265,0.53383 -0.53383,1.16472 -0.29118,0.58236 -0.58236,1.16472 -0.29118,0.58236 -0.43677,0.77648 -2.62061,4.99858 -4.99858,10.2398 -2.32943,5.24123 -4.02798,10.48246 0,0 0,-0.0485 0.0485,0 0.0971,-0.0971 -0.24265,-0.14559 -0.24265,-0.53382 0.0485,-0.38824 0.14559,-0.58236 l 1.65002,-5.09564 q 0.19412,-0.53383 0.14559,-0.63089 -0.0485,-0.14559 -0.43677,-0.14559 z m -1.74708,7.57066 -0.14559,-0.58236 q 0.0971,-0.38824 0.14559,-0.43677 0.0971,-0.0485 0.4853,-0.0485 l -0.0971,0.3397 q -0.0971,0.29118 -0.14559,0.87354 0,0.58236 0.43677,0.82501 l -0.14559,-0.58236 q 0.0971,-0.38824 0.19412,-0.43677 0.0971,-0.0485 0.53383,-0.0485 l 0.43677,0.63089 q 1.65001,-5.14417 3.97945,-10.33687 2.32943,-5.24123 4.95005,-10.23981 0.14559,-0.19412 0.38824,-0.72795 0.29118,-0.58235 0.58236,-1.21324 0.33971,-0.63089 0.58236,-1.16472 0.24265,-0.58236 0.33971,-0.77648 0.3397,-0.67942 0.63088,-1.55296 l 0.53383,-1.65001 q 0.24265,-0.82501 0.53383,-1.60149 0.29118,-0.77648 0.82501,-1.50443 l 2.32944,-7.27948 q 0.14559,-0.38824 -0.0485,-0.63089 -0.19412,-0.24265 -0.53383,-0.43677 0.0485,-0.43677 -0.29118,-0.67942 -0.33971,-0.29118 -0.82501,-0.43677 -0.4853,-0.14559 -0.9706,-0.19412 -0.4853,-0.0485 -0.72795,-0.0485 -0.82501,0 -1.45589,0.4853 -0.63089,0.4853 -1.16472,1.21325 -0.53383,0.72795 -0.9706,1.60149 -0.43677,0.825 -0.77648,1.55295 -0.0971,0.14559 -0.19412,0.33971 -0.0485,0.19412 -0.24265,0.53383 l -6.06624,14.55897 -2.23237,6.79419 q -0.14559,0.4853 -0.38824,1.40737 -0.19412,0.87353 -0.38824,1.84413 -0.14559,0.92207 -0.19412,1.84414 -0.0485,0.87354 0.0971,1.35884 h 0.38824 0.14559 q -0.0971,0.58235 0.14559,0.97059 h 0.29118 l -1.21325,3.73681 q -0.0971,0.29118 -0.14559,0.87353 -0.0485,0.58236 0.38824,0.82501 z"
         style="font-style:italic;font-variant:normal;font-weight:normal;font-stretch:normal;font-size:48.52990341px;font-family:'Righteous Kill Outline Italic';-inkscape-font-specification:'Righteous Kill Outline Italic, Italic';font-variant-ligatures:normal;font-variant-caps:normal;font-variant-numeric:normal;font-feature-settings:normal;text-align:center;writing-mode:lr-tb;text-anchor:middle;fill:#ff336d;fill-opacity:1;stroke:#ff336d;stroke-width:0.95531303;stroke-miterlimit:4;stroke-dasharray:none;stroke-opacity:1"
         id="path4585"
         inkscape:connector-curvature="0" />
      <path
         d="m 374.51835,505.46451 q 0.24265,0 0.0971,0.29118 -0.0485,0.19412 -0.24265,0.19412 -0.0971,0 -0.0485,-0.19412 0.14559,-0.29118 0.19412,-0.29118 z m -40.86218,34.11653 q 0.14559,-0.0971 0.43677,-0.38824 0.29118,-0.29118 0.58236,-0.63089 0.33971,-0.29118 0.63089,-0.58236 0.29118,-0.29118 0.38824,-0.43677 0.53383,-0.58236 1.11619,-1.65002 0.58236,-1.11618 1.11619,-2.37796 0.58236,-1.26178 1.01912,-2.47503 0.4853,-1.21324 0.82501,-1.94119 0.4853,-1.16472 1.16472,-2.81474 0.67942,-1.65001 1.11619,-2.96032 0.0971,-0.29118 0.24265,-0.67942 0.19412,-0.38824 0.29118,-0.77648 0.0971,-0.38824 0,-0.63089 -0.0485,-0.29118 -0.38824,-0.29118 -0.38824,0 -0.72795,0.29118 0.0485,-0.0971 0,-0.19412 0,-0.0971 0.0485,-0.19412 0.0485,-0.0485 0.0971,-0.14559 0.0485,-0.0971 0.0485,-0.0971 0.0485,-0.14559 0.29118,-0.53382 0.24265,-0.38824 0.53383,-0.82501 0.29118,-0.43677 0.53383,-0.82501 0.24265,-0.43677 0.38824,-0.58236 l 5.77505,-10.77364 q 0.24265,-0.29118 0.43677,-0.72795 0.19412,-0.4853 0.38824,-0.92207 0.24265,-0.43676 0.53383,-0.72794 0.29118,-0.33971 0.77648,-0.33971 0.29118,0 0.33971,0.14559 0.0971,0.14559 0.0971,0.33971 0,0.19412 0.0485,0.3397 0.0485,0.14559 0.29118,0.14559 h 0.0485 q 0.0971,0 0.33971,-0.0971 0.24265,-0.0971 0.4853,-0.14558 0.29118,-0.0971 0.4853,-0.14559 0.19412,-0.0485 0.19412,-0.0485 0.0485,0 0.24264,0 0.19412,-0.0485 0.19412,-0.0485 0.29118,0 0.33971,0.0485 0.0485,0.0485 0.0485,0.43676 l -0.0971,5.14417 q 0,1.84414 0.38824,3.54269 0.38824,1.69854 0.9706,3.2515 0.63089,1.55296 1.40737,3.05738 0.82501,1.4559 1.60148,2.9118 0.14559,0.43677 0.67942,0.43677 0.43677,0 0.67942,-0.38824 0.24265,-0.38824 0.38824,-0.77648 l 0.82501,-2.42649 0.58236,-1.79561 0.53383,-1.74708 0.82501,-2.47502 q 0.0485,-0.0485 0.19412,-0.33971 0.14559,-0.29118 0.29117,-0.58236 0.14559,-0.33971 0.24265,-0.58236 0.14559,-0.29118 0.14559,-0.29118 l 0.14559,-0.53383 0.29118,-0.87354 0.24265,-0.77647 0.19412,-0.53383 q 0,-0.0485 0.19412,-0.38824 0.19412,-0.38824 0.24265,-0.53383 l 1.79561,-4.2221 q 0.19412,-0.38824 0.67942,-1.35884 0.4853,-0.9706 1.01912,-1.9412 0.53383,-1.01913 0.92207,-1.7956 0.43677,-0.77648 0.53383,-0.77648 h 0.19412 q -0.0485,0.14559 -0.0485,0.38824 0.0485,0.19412 0,0.33971 l -0.14559,0.38824 -0.33971,1.06765 -0.14559,0.43677 q -0.53383,1.65002 -1.26177,3.25151 -0.72795,1.55295 -1.26178,3.2515 l -0.14559,0.43677 -0.43677,1.26178 -0.14559,0.43677 q 0,0.14559 0.0485,0.43676 0.0971,0.24265 0.29118,0.24265 0.4853,0 1.16472,-0.77647 0.72794,-0.82501 1.45589,-2.08679 0.77648,-1.26178 1.55296,-2.7662 0.82501,-1.50443 1.55296,-2.86327 0.72795,-1.40737 1.3103,-2.52355 0.63089,-1.11619 1.01913,-1.55296 0.19412,-0.19412 0.53383,-0.53383 0.33971,-0.38824 0.38824,-0.38824 h 0.24265 l -0.72795,2.28091 q -0.4853,0.29118 -0.9706,1.11618 -0.4853,0.77648 -0.92206,1.79561 -0.43677,0.9706 -0.82501,2.03826 -0.33971,1.01912 -0.58236,1.7956 l -0.33971,0.9706 -0.19412,0.58236 -0.38824,1.31031 -0.0971,0.24265 q -0.0971,0.19412 -0.24265,0.82501 -0.0971,0.58235 0,0.72794 0,0.0971 0,0.14559 0.0485,0.0485 0.0485,0.0485 0.33971,-0.14559 0.77648,-0.72795 0.43677,-0.58235 0.82501,-1.3103 0.43677,-0.72795 0.82501,-1.40737 0.38823,-0.67942 0.63088,-1.01913 0,0.0485 -0.0485,0.24265 -0.0485,0.19412 -0.0485,0.24265 -0.38823,1.11619 -1.06765,2.13532 -0.63089,1.01913 -1.26178,2.13531 -2.96032,5.24123 -5.62947,10.28834 -2.62061,5.04711 -4.46475,10.48246 -0.14559,0.29118 -0.29118,0.29118 h -0.24265 -0.29118 q -0.24265,0 -0.9706,-0.0971 -0.67942,-0.0971 -0.92207,-0.19412 -0.38823,-0.14559 -0.3397,-0.58236 0.0971,-0.4853 0.24264,-0.92207 -0.825,-1.40736 -1.74707,-2.57208 -0.87354,-1.21325 -1.55296,-2.62062 -0.0971,-0.24264 -0.33971,-0.72794 -0.24265,-0.53383 -0.53383,-1.06766 -0.24265,-0.58236 -0.4853,-1.01913 -0.19412,-0.43677 -0.24265,-0.53383 l -0.63088,-1.55296 -1.01913,-2.2809 q -0.19412,-0.29118 -0.58236,-0.77648 -0.38824,-0.53383 -0.38824,-0.58236 h -0.67942 q 0,0.0485 -0.14559,0.29118 -0.14559,0.24265 -0.38824,0.67942 -0.24265,0.38824 -0.38824,0.63089 -0.24265,0.24265 -0.33971,0.4853 -0.0971,0.24265 -0.19412,0.4853 -0.14559,0.38824 -0.53382,0.87354 -0.19412,0.3397 -0.58236,1.11618 -0.33971,0.72795 -0.82501,1.69855 -0.4853,0.9706 -1.01913,2.03826 -0.53383,1.06765 -1.01913,2.08678 -0.43677,0.9706 -0.82501,1.74708 -0.33971,0.77648 -0.4853,1.11619 -0.0485,0.0971 -0.24264,0.53382 -0.14559,0.38824 -0.33971,0.87354 -0.14559,0.43677 -0.33971,0.82501 -0.14559,0.38824 -0.19412,0.4853 -0.14559,0.38824 -0.43677,0.53383 -0.29118,0.14559 -0.58236,0.14559 -0.4853,0 -0.38824,-0.43677 0.0971,-0.4853 0.29118,-1.01913 0.24265,-0.58236 0.29118,-1.01913 0.0485,-0.4853 -0.4853,-0.4853 -0.63089,0 -1.26178,0.72795 -0.58236,0.67942 -1.21325,1.74708 -0.58235,1.06766 -1.16471,2.28091 -0.58236,1.21324 -1.21325,2.2809 -0.58236,1.06766 -1.21325,1.74708 -0.63089,0.72795 -1.26178,0.72795 -0.29118,0 -0.33971,-0.29118 z m -0.0485,1.26177 q 0.19412,0.63089 0.82501,0.63089 0.67942,0 1.26178,-0.4853 0.63089,-0.43677 1.16472,-1.21324 0.58236,-0.72795 1.06766,-1.69855 0.53383,-0.9706 1.01912,-1.9412 0.38824,-0.82501 0.77648,-1.60148 0.38824,-0.77648 0.77648,-1.35884 0,0.33971 0.14559,0.53383 0.14559,0.19412 0.58236,0.24265 -0.0971,0.43677 0.0485,0.72795 0.14559,0.24265 0.77648,0.24265 0.53383,0 1.01913,-0.24265 0.53383,-0.29118 0.87353,-1.01913 0,-0.0971 0.14559,-0.43677 0.14559,-0.38824 0.33971,-0.82501 0.19412,-0.43677 0.33971,-0.87354 0.14559,-0.43677 0.24265,-0.58236 0.19412,-0.53383 0.82501,-1.84413 0.67942,-1.35884 1.40737,-2.86327 0.72795,-1.50442 1.40736,-2.86326 0.72795,-1.35884 1.01913,-1.98973 0.4853,-0.53383 0.67942,-1.16472 0.0485,-0.29117 0.33971,-0.72794 0.24265,-0.38824 0.33971,-0.58236 0.14559,-0.19412 0.38824,-0.53383 0.0971,0.19412 0.29118,0.4853 l 0.82501,1.84413 h -0.0485 l 0.53383,1.35884 q 0.0971,0.14559 0.33971,0.63089 0.24265,0.43677 0.53382,1.01913 0.29118,0.58236 0.53383,1.11619 0.24265,0.53382 0.33971,0.77647 0.63089,1.21325 1.4559,2.37797 0.29118,0.43677 0.58236,0.87354 0.29118,0.43677 0.58236,0.82501 0.0971,0.0971 0.0971,0.19412 0.0485,0.0485 0.0971,0.14559 0.24265,0.3397 0.38824,0.67941 -0.19412,0.53383 -0.19412,1.06766 0,0.4853 0.63089,0.72795 h -0.0485 q 0,0.0485 0.0971,0.0485 -0.0971,0.72795 0.63088,0.92207 h -0.0485 q 0.29118,0.14559 1.06766,0.24265 0.77648,0.0971 1.06766,0.0971 h 0.53383 q 0.24265,0 0.53383,-0.19412 0.29118,-0.19412 0.53383,-0.58236 1.84413,-5.43535 4.46475,-10.48246 2.62061,-5.04711 5.62947,-10.28834 0.24265,-0.53383 0.43677,-0.82501 0.19412,-0.29118 0.33971,-0.53383 0.53382,-0.77648 0.92206,-1.50442 0.38824,-0.77648 0.67942,-1.60149 v -0.19412 l 0.0485,-0.0971 q 0.43677,-0.14559 0.63089,-0.77648 0.29118,-0.92207 -0.53383,-0.92207 h -0.14559 v -0.0485 q 0.33971,-0.92206 -0.4853,-0.92206 -0.38824,0 -0.67942,0.29117 0.53383,-1.40736 1.21325,-2.7662 0.67942,-1.40737 1.35884,-1.84414 l 1.06766,-3.20297 h -0.87354 q -0.0485,0 -0.0485,0.0485 0,0 -0.0485,0 l 0.29118,-1.01913 h -0.87354 q -0.0971,0 -0.29118,0.14559 -0.19412,0.14559 -0.43677,0.38824 -0.24265,0.19412 -0.4853,0.38824 -0.24265,0.19412 -0.33971,0.33971 -0.53383,0.63089 -1.21324,1.84414 -0.63089,1.21324 -1.4559,2.7662 v -0.0485 q -0.72795,1.40737 -1.50443,2.86327 -0.77648,1.45589 -1.4559,2.62061 0.24265,-0.58236 0.4853,-1.16472 0.24265,-0.58236 0.4853,-1.11619 0.33971,-0.825 0.63089,-1.60148 0.33971,-0.82501 0.63089,-1.65002 l 0.58236,-1.89267 q 0,0.0971 0,-0.19411 0.0485,-0.33971 0.0485,-0.53383 l 0.24265,-0.63089 h -0.82501 q -0.0485,0 -0.14559,0.0485 0.0485,-0.0971 0.0485,-0.19412 0,-0.0971 0.0485,-0.19412 l 0.19412,-0.63089 h -0.82501 q -0.19412,0 -0.77648,0.87354 -0.53383,0.82501 -1.21324,1.94119 -0.63089,1.11619 -1.21325,2.18385 -0.53383,1.01913 -0.72795,1.4559 l -1.79561,4.2221 q -0.0485,0.0971 -0.14559,0.29118 -0.0971,0.14559 -0.19412,0.33971 0,0.0485 -0.0971,0.14559 l -0.87353,2.7662 q -0.0971,0.19412 -0.14559,0.29118 -0.0485,0.0971 -0.14559,0.33971 -0.14559,0.29118 -0.33971,0.63089 -0.14559,0.33971 -0.24265,0.43677 l -2.81474,8.68685 q -0.0971,0.24265 -0.14559,0.38824 -0.0485,0.14559 -0.0485,0.14559 h -0.0485 q -0.0971,-0.0971 -0.0485,-0.14559 -0.72795,-1.31031 -1.45589,-2.66915 -0.72795,-1.40736 -1.26178,-2.81473 -0.53383,-1.4559 -0.87354,-2.96032 -0.29118,-1.55296 -0.29118,-3.20298 l 0.0971,-5.33829 q -0.0485,-0.53383 -0.14559,-0.63089 -0.0971,-0.0971 -0.53383,-0.0971 l 0.0485,-0.24264 q -0.0485,-0.53383 -0.14559,-0.63089 -0.0971,-0.0971 -0.63089,-0.0971 h -0.19412 q -0.19412,0.0485 -0.29118,0.0485 -0.24264,0 -0.58235,0.0971 -0.29118,0.0971 -0.63089,0.19412 -0.19412,0.0971 -0.24265,0.0971 -0.0485,-0.33971 -0.24265,-0.63089 -0.14559,-0.29118 -0.67942,-0.29118 -1.01913,0 -1.55296,0.72795 -0.53383,0.67941 -0.87354,1.50442 -0.0971,0.24265 -0.19412,0.4853 -0.0971,0.24265 -0.29117,0.43677 l -5.77506,10.82217 0.0971,-0.0485 q -0.29118,0.38824 -0.82501,1.21325 -0.53383,0.82501 -0.82501,1.31031 l 0.0485,-0.0971 q -0.0971,0.0971 -0.14559,0.19411 -0.0485,0.0971 -0.0971,0.19412 l -0.19412,0.38824 -0.0485,0.19412 q 0,0 -0.0971,0.29118 -0.0485,0.24265 -0.14559,0.58236 -0.0971,0.29118 -0.19412,0.58236 -0.0485,0.24265 -0.0485,0.24265 0.43677,-0.33971 0.67942,-0.53383 0.29118,-0.19412 0.53383,-0.33971 l -0.0485,0.14559 q 0,0 -0.0971,0.29118 -0.0971,0.24265 -0.19412,0.58236 -0.0971,0.29118 -0.19412,0.58236 -0.0485,0.24265 -0.0485,0.24265 l 0.38824,-0.29118 q -0.38824,1.21325 -1.01913,2.71767 -0.58236,1.50443 -1.06766,2.62062 0,0.0971 -0.0485,0.14559 -0.0485,0.0485 -0.0971,0.14559 -0.14559,0.38824 -0.33971,0.82501 -0.14559,0.43676 -0.38823,0.97059 -0.33971,0.87354 -0.77648,1.84414 -0.38824,0.92207 -0.82501,1.84414 -0.38824,0.87353 -0.82501,1.60148 -0.38824,0.72795 -0.72795,1.11619 -0.0971,0.0971 -0.33971,0.33971 -0.24265,0.29118 -0.53383,0.58236 -0.29118,0.33971 -0.58236,0.58236 -0.29117,0.29118 -0.43676,0.38824 l -0.38824,0.72795 q 0.14559,0.63088 0.825,0.63088 z"
         style="font-style:italic;font-variant:normal;font-weight:normal;font-stretch:normal;font-size:48.52990341px;font-family:'Righteous Kill Outline Italic';-inkscape-font-specification:'Righteous Kill Outline Italic, Italic';font-variant-ligatures:normal;font-variant-caps:normal;font-variant-numeric:normal;font-feature-settings:normal;text-align:center;writing-mode:lr-tb;text-anchor:middle;fill:#ff336d;fill-opacity:1;stroke:#ff336d;stroke-width:0.95531303;stroke-miterlimit:4;stroke-dasharray:none;stroke-opacity:1"
         id="path4587"
         inkscape:connector-curvature="0" />
      <path
         d="m 383.14833,534.24275 q -0.58235,0 -1.26177,0.33971 -0.67942,0.33971 -1.40737,0.33971 -0.19412,0 -0.33971,-0.0485 -0.0971,-0.0485 0,-0.33971 l 2.32944,-7.27949 q 0.0971,-1.01913 0.29118,-2.03826 0.19412,-1.01912 0.3397,-1.98972 0.14559,-1.01913 0.14559,-1.98973 0.0485,-1.01913 -0.14559,-1.98972 -0.3397,-1.50443 -1.16471,-2.57209 -0.77648,-1.06766 -1.31031,-2.32943 -0.14559,-0.43677 -0.24265,-0.9706 -0.0485,-0.58236 -0.14559,-1.16472 -0.0485,-0.58236 -0.14559,-1.11619 -0.0971,-0.58236 -0.29118,-1.01912 -0.0485,-0.0971 -0.24265,-0.4853 -0.19412,-0.43677 -0.43677,-0.92207 -0.24265,-0.4853 -0.4853,-0.9706 -0.19412,-0.4853 -0.29118,-0.72795 -0.24265,-0.53383 -0.53382,-1.06766 -0.29118,-0.53383 -0.0485,-1.3103 0.0971,-0.19412 0.14559,-0.33971 0.0485,-0.14559 0.3397,-0.24265 h 0.14559 0.67942 0.24265 q 0.82501,0 1.31031,0.19412 0.53383,0.14559 1.26178,0.24265 0.43677,0.14559 0.92207,0.14559 0.67941,0 1.26177,0.0971 0.58236,0.0485 1.16472,0.48529 0.82501,0.58236 1.01913,1.55296 0.24265,0.9706 0.14559,2.18385 -0.0485,1.16472 -0.29118,2.47502 -0.24265,1.26178 -0.33971,2.52356 -0.0971,1.26177 0.0971,2.37796 0.19412,1.06766 0.9706,1.84414 h 0.4853 q 0.63089,0 0.97059,-0.14559 0.33971,-0.19412 0.58236,-0.4853 0.24265,-0.29118 0.43677,-0.63089 0.24265,-0.38824 0.63089,-0.77648 2.08679,-1.60148 3.83386,-3.15444 1.79561,-1.55296 3.3971,-3.15444 1.60148,-1.65002 3.15444,-3.3971 1.55296,-1.74707 3.15444,-3.68827 l 0.33971,-0.24265 q 0,0 0,0.0971 0,0.0485 0.0971,0.14559 0.0485,0.14559 0.0971,0.53383 0.0971,0.38824 0.14559,0.82501 0.0971,0.38824 0.14559,0.77648 0.0971,0.38823 0.0971,0.53382 l -0.19412,0.58236 q -0.29118,0.9706 -1.16471,2.18385 -0.87354,1.16472 -1.98973,2.37796 -1.06766,1.21325 -2.18385,2.28091 -1.11618,1.06766 -1.89266,1.74708 l -0.92207,0.63088 q -0.53383,0.4853 -1.40737,1.26178 -0.82501,0.72795 -1.65001,1.4559 -0.82501,0.72795 -1.40737,1.26178 -0.58236,0.53383 -0.58236,0.53383 l -0.43677,0.67941 q -0.9706,3.54269 -2.47503,7.32802 -1.45589,3.7368 -2.86326,7.23096 -0.0971,0 -0.33971,0.0971 -0.19412,0.0971 -0.24265,0.14559 h -0.14559 -0.0971 q -0.38824,-0.19412 -0.58236,-0.53383 -0.19412,-0.38824 -0.67942,-0.38824 z m 0.43677,1.60148 q 0.14559,0 0.24265,0.14559 0.14559,0.0971 0.24265,0.19412 0.14559,0.0971 0.19412,0.19412 0.0971,0.14559 0.53383,0.38824 h 0.9706 q 0,-0.0485 0.19412,-0.14559 0.19412,-0.0971 0.29118,-0.0971 0.58236,-1.40736 1.21325,-2.96032 0.63088,-1.55296 1.21324,-3.15445 0.63089,-1.60148 1.21325,-3.15444 0.58236,-1.60149 1.06766,-3.05738 0.24265,-0.67942 0.43677,-1.40737 0.24265,-0.72795 0.43677,-1.40737 l 0.24265,-0.38824 q 1.35883,-1.21324 2.08678,-1.84413 0.77648,-0.67942 1.21325,-1.11619 0.4853,-0.43677 0.82501,-0.72795 0.33971,-0.29118 0.87354,-0.77648 l -0.0485,0.0971 0.92207,-0.67942 q 0.825,-0.67942 1.94119,-1.7956 1.16472,-1.11619 2.28091,-2.37797 1.16471,-1.26178 2.08678,-2.52355 0.92207,-1.31031 1.26178,-2.32944 l 0.19412,-0.67942 q 0,-0.14559 -0.0971,-0.58236 -0.0485,-0.43677 -0.14559,-0.87353 -0.0485,-0.4853 -0.14559,-0.87354 -0.0485,-0.43677 -0.0971,-0.58236 -0.0485,-0.0485 0,-0.19412 0.0485,-0.14559 0.33971,-1.01913 l -0.92207,0.58236 q 0,-0.0971 -0.0485,-0.14559 -0.0485,-0.0971 -0.0485,-0.19412 -0.0485,-0.0485 0,-0.19412 0.0485,-0.14559 0.33971,-1.01913 l -1.84413,1.21325 q -1.60149,1.9412 -3.15445,3.68827 -1.55296,1.74708 -3.15444,3.3971 -1.60149,1.60148 -3.3971,3.15444 -1.74707,1.55296 -3.83386,3.15444 -0.33971,0.33971 -0.72795,0.9706 -0.24265,0.33971 -0.4853,0.58236 -0.24265,0.19412 -0.77647,0.19412 h -0.19412 q -0.38824,-1.06766 -0.29118,-2.42649 0.14559,-1.40737 0.38824,-2.81474 0.14559,-0.92207 0.24265,-1.79561 0.0971,-0.92206 0.0485,-1.69854 0,-0.82501 -0.24265,-1.50443 -0.19412,-0.72795 -0.67942,-1.26178 -0.33971,-0.77648 -1.06766,-1.35883 h 0.0485 q -0.67942,-0.53383 -1.35884,-0.58236 -0.63089,-0.0971 -1.40737,-0.0971 -0.48529,0 -0.97059,-0.14559 -0.24265,-0.0485 -0.43677,-0.0971 -0.14559,-0.0485 -0.33971,-0.0971 -0.38824,-0.0971 -0.77648,-0.14559 -0.33971,-0.0971 -0.9706,-0.0971 h -1.26178 q -0.63088,0.29118 -0.825,0.53383 -0.14559,0.24265 -0.24265,0.58236 l -0.0485,0.0971 q -0.24265,0.72794 -0.0971,1.26177 0.19412,0.4853 0.43677,0.9706 0.0971,0.14559 0.14559,0.29118 0.0485,0.0971 0.14559,0.24265 0.0971,0.24265 0.29117,0.72795 0.24265,0.4853 0.43677,1.01913 0.24265,0.4853 0.43677,0.92207 0.24265,0.38823 0.33971,0.48529 0.14559,0.38824 0.19412,1.01913 0.0485,0.63089 0.14559,1.16472 0.0485,0.53383 0.14559,1.01913 0.0971,0.4853 0.19412,0.87354 0.58236,1.3103 1.11619,1.98972 0.4853,0.67942 0.82501,1.40737 0.38824,0.72795 0.58236,1.55296 0.24265,1.21324 0.0971,2.57208 -0.0971,1.31031 -0.33971,2.66915 -0.0971,0.67941 -0.24265,1.3103 -0.0971,0.63089 -0.19412,1.31031 l -2.28091,7.1339 q -0.24265,0.67942 0,0.87353 0.24265,0.14559 0.63089,0.14559 -0.24265,0.72795 0.0485,0.82501 0.29118,0.14559 0.72795,0.14559 0.53383,0 0.9706,-0.14559 0.43677,-0.0971 0.82501,-0.29118 h -0.0485 q 0.24265,-0.0971 0.48529,-0.14559 0.24265,-0.0971 0.43677,-0.0971 z"
         style="font-style:italic;font-variant:normal;font-weight:normal;font-stretch:normal;font-size:48.52990341px;font-family:'Righteous Kill Outline Italic';-inkscape-font-specification:'Righteous Kill Outline Italic, Italic';font-variant-ligatures:normal;font-variant-caps:normal;font-variant-numeric:normal;font-feature-settings:normal;text-align:center;writing-mode:lr-tb;text-anchor:middle;fill:#ff336d;fill-opacity:1;stroke:#ff336d;stroke-width:0.95531303;stroke-miterlimit:4;stroke-dasharray:none;stroke-opacity:1"
         id="path4589"
         inkscape:connector-curvature="0" />
    </g>
  </g>
</svg>
